<svg viewBox="0 0 332.52 407.72" xmlns="http://www.w3.org/2000/svg" xmlns:xlink="http://www.w3.org/1999/xlink" id="Layer_2" overflow="hidden"><defs></defs><path d="M257.44 303.05C253.574 303.05 250.44 299.916 250.44 296.05L250.44 253.4C250.44 200.5 300.34 157.47 361.67 157.47 423 157.47 472.9 200.47 472.9 253.4L472.9 294.4C472.9 298.266 469.766 301.4 465.9 301.4 462.034 301.4 458.9 298.266 458.9 294.4L458.9 253.4C458.9 208.22 415.28 171.47 361.67 171.47 308.06 171.47 264.44 208.22 264.44 253.4L264.44 296.05C264.44 299.916 261.306 303.05 257.44 303.05Z" fill="#2BACE2" transform="translate(-195.41 -157.47)"/><path d="M302.32 295.79C298.454 295.79 295.32 292.656 295.32 288.79L295.32 254C295.32 223.33 325.08 198.38 361.67 198.38 398.26 198.38 428 223.36 428 254L428 287.86C428 291.726 424.866 294.86 421 294.86 417.134 294.86 414 291.726 414 287.86L414 254C414 231.05 390.52 212.38 361.65 212.38 332.78 212.38 309.32 231.08 309.32 254L309.32 288.76C309.337 292.626 306.216 295.773 302.35 295.79 302.34 295.79 302.33 295.79 302.32 295.79Z" fill="#2BACE2" transform="translate(-195.41 -157.47)"/><path d="M497 565.18 226.38 565.18C209.259 565.18 195.38 551.301 195.38 534.18L195.38 334.18C195.348 319.113 206.19 306.221 221.04 303.67L302.59 286.8 302.84 286.75C342.112 280.103 382.224 280.124 421.49 286.81L421.74 286.86 502.28 303.66C517.11 306.228 527.931 319.11 527.9 334.16L527.9 534.22C527.878 551.286 514.066 565.125 497 565.18ZM305.33 300.55 223.79 317.42 223.54 317.47C215.371 318.831 209.39 325.909 209.41 334.19L209.41 534.19C209.41 543.579 217.021 551.19 226.41 551.19L497 551.19C506.389 551.19 514 543.579 514 534.19L514 334.19C514.017 325.917 508.049 318.844 499.89 317.47L499.63 317.42 419 300.6C381.368 294.204 342.928 294.187 305.29 300.55Z" fill="#2BACE2" transform="translate(-195.41 -157.47)"/><path d="M379.32 490.32 344.17 490.32C338.202 490.314 333.366 485.478 333.36 479.51L333.36 441.29C320.884 432.907 313.081 419.141 312.3 404.13 311.336 390.518 316.02 377.11 325.25 367.06 334.29 357.139 347.02 351.384 360.44 351.15 387.815 350.531 410.509 372.222 411.127 399.597 411.136 399.961 411.14 400.326 411.14 400.69 411.14 416.34 403.2 431.48 390.19 441.07L390.19 479.45C390.179 485.449 385.319 490.309 379.32 490.32ZM347.32 476.32 376.15 476.32 376.15 437.37C376.15 434.961 377.389 432.72 379.43 431.44 390.33 424.61 397.1 412.83 397.1 400.69 397.083 381.034 381.135 365.114 361.479 365.131 361.223 365.131 360.966 365.134 360.71 365.14 351.109 365.31 342.002 369.426 335.53 376.52 328.891 383.763 325.531 393.421 326.24 403.22 326.843 414.947 333.456 425.533 343.73 431.22 345.945 432.456 347.319 434.793 347.32 437.33Z" fill="#01A79D" transform="translate(-195.41 -157.47)"/></svg>